<svg id="Layer_1" data-name="Layer 1" xmlns="http://www.w3.org/2000/svg" viewBox="0 0 293.61 265.55"><defs><style>.cls-1{fill:#fff;}.cls-2{fill:#231f20;}.cls-3{stroke:#fff;stroke-linecap:round;stroke-linejoin:round;stroke-width:2px;}</style></defs><path class="cls-1" d="M296.48,536.28a2.5,2.5,0,0,1-2.5-2.5V349a2.5,2.5,0,0,1,2.5-2.5H439a2.5,2.5,0,0,1,2.5,2.5v46.38a2.5,2.5,0,0,1-2.5,2.5H375.64v28.54H422a2.5,2.5,0,0,1,2.5,2.5v46.37a2.49,2.49,0,0,1-2.5,2.5H375.64v56a2.5,2.5,0,0,1-2.5,2.5Z" transform="translate(-150.39 -276.45)"/><path class="cls-2" d="M439,349v46.38H373.14v33.54H422v46.37H373.14v58.49H296.48V349H439m0-5H296.48a5,5,0,0,0-5,5V533.78a5,5,0,0,0,5,5h76.66a5,5,0,0,0,5-5V480.29H422a5,5,0,0,0,5-5V428.92a5,5,0,0,0-5-5H378.14V400.38H439a5,5,0,0,0,5-5V349a5,5,0,0,0-5-5Z" transform="translate(-150.39 -276.45)"/><path class="cls-3" d="M392.32,314.71c-9-7.84-19.49-13.26-29.47-19.4-6.94-4.27-16-4.93-18-16.94l-4.48,4.16a13.25,13.25,0,0,0-1.28-2.26c-.94-1.08-2.35-3.07-2.92-2.79a6.76,6.76,0,0,0-2.83,3.73c-2.22,6.63-.62,13.32,4.48,17,6.53,4.73,13.42,8.76,20,13.35,7,4.9,13.56,10.6,17.4,19.55,3.58,8.31,2.36,17.78-2.73,23.48-4.83,5.41-9.8,5.65-17.54.12-8.35-6-16.5-12.35-24.75-18.51-11.67-8.71-24-11.23-37.55-7.2C287,330.71,280.9,330.79,275,331s-11.94-.33-17.9-.71c-8.07-.53-14.22,3.48-19.07,10.95-9,13.87-15.09,29.43-19.06,46.28-1,4.21-.35,7.39,2.61,10.08,9.41,8.55,18.51,17.64,28.19,25.7,8.08,6.72,16.77,12.41,25.29,18.33,4.12,2.86,8.35,3,12.62-.19,3.73-2.77,7.69-5.08,11.55-7.6l.95,1.47c-3.43,3.85-6.67,8-10.38,11.45-2,1.88-5.1,4-7.27,3.49-6-1.45-12.29-3.18-17.6-6.69-18.33-12.11-34.31-28.29-50.41-44.16a8.15,8.15,0,0,1-2.5-3.86c-.71-4-2.78-3.73-5-2.52-6.05,3.33-12.18,6.53-18,10.41C176.54,411.76,170.31,425,169.15,442a28.89,28.89,0,0,1-1.71,6.6c-4.59,14.27-9.55,28.38-13.76,42.81a55.9,55.9,0,0,0,.83,34.22c.54,1.56,1.36,3,2.53,5.47,2.31-9.3,4.63-17.52,2.2-25.66-2.28-7.64-1.41-14.26,1.6-21,2.56-5.72,5.07-11.46,7.69-17.14a27.85,27.85,0,0,1,2.65-3.79C175.7,490,184.13,514,194.62,537.41h43.76a136.5,136.5,0,0,1-.62-16.91,27.56,27.56,0,0,1,2.85-10.77c5.4-11.12,16.46-10.69,21.65.6,3.25,7.07,3.14,14.74,2.51,22.39-.12,1.57-.33,3.13-.56,4.69h43.37a313.6,313.6,0,0,0,23.15-102.85L342,426l8.17-3.42-.17-.11,1.2-.33h0c1.38-.38,2.74-.73,4.09-1.08a109.85,109.85,0,0,0,13.11-3.93,99.34,99.34,0,0,0,17.21-8.78c10-6.41,18.38-15,23-27.85C416.6,358.39,410.15,330.25,392.32,314.71Zm-60.83,70.47c-4.14.22-7.78-3.95-7.85-9s3.53-9.36,7.62-9.3,7.36,4.19,7.41,9.05S335.52,385,331.49,385.18Z" transform="translate(-150.39 -276.45)"/><path class="cls-1" d="M174.39,536.28a2.5,2.5,0,0,1-2.5-2.5V349a2.5,2.5,0,0,1,2.5-2.5H316.91a2.5,2.5,0,0,1,2.5,2.5v46.38a2.5,2.5,0,0,1-2.5,2.5H253.55v28.54h46.33a2.5,2.5,0,0,1,2.5,2.5v46.37a2.49,2.49,0,0,1-2.5,2.5H253.55v56a2.5,2.5,0,0,1-2.5,2.5Z" transform="translate(-150.39 -276.45)"/><path class="cls-2" d="M316.91,349v46.38H251.05v33.54h48.83v46.37H251.05v58.49H174.39V349H316.91m0-5H174.39a5,5,0,0,0-5,5V533.78a5,5,0,0,0,5,5h76.66a5,5,0,0,0,5-5V480.29h43.83a5,5,0,0,0,5-5V428.92a5,5,0,0,0-5-5H256.05V400.38h60.86a5,5,0,0,0,5-5V349a5,5,0,0,0-5-5Z" transform="translate(-150.39 -276.45)"/><rect class="cls-2" x="112.91" y="260.59" width="108.83" height="4.96"/><rect class="cls-2" x="20.43" y="260.59" width="78.24" height="4.96"/></svg>